<mxfile host="app.diagrams.net" modified="2023-03-06T04:59:45.715Z" agent="5.0 (Windows NT 10.0; Win64; x64) AppleWebKit/537.36 (KHTML, like Gecko) Chrome/110.0.0.0 Safari/537.36" etag="YlRn6ijf4-36wdYK4hgu" version="21.0.2" type="github">
  <diagram name="Page-1" id="ad52d381-51e7-2e0d-a935-2d0ddd2fd229">
    <mxGraphModel dx="2244" dy="1553" grid="1" gridSize="10" guides="1" tooltips="1" connect="1" arrows="1" fold="1" page="1" pageScale="1" pageWidth="1100" pageHeight="850" background="none" math="0" shadow="0">
      <root>
        <mxCell id="0" />
        <mxCell id="1" parent="0" />
        <mxCell id="uM22jS7cik_ZJRduj6Vj-8" style="edgeStyle=orthogonalEdgeStyle;rounded=0;orthogonalLoop=1;jettySize=auto;html=1;exitX=0.5;exitY=1;exitDx=0;exitDy=0;entryX=0.5;entryY=0;entryDx=0;entryDy=0;endArrow=classic;endFill=1;startArrow=none;" edge="1" parent="1" source="uM22jS7cik_ZJRduj6Vj-9" target="uM22jS7cik_ZJRduj6Vj-7">
          <mxGeometry relative="1" as="geometry" />
        </mxCell>
        <mxCell id="uM22jS7cik_ZJRduj6Vj-57" style="edgeStyle=orthogonalEdgeStyle;rounded=0;orthogonalLoop=1;jettySize=auto;html=1;exitX=1;exitY=0.5;exitDx=0;exitDy=0;entryX=0;entryY=0.5;entryDx=0;entryDy=0;" edge="1" parent="1" source="uM22jS7cik_ZJRduj6Vj-6" target="uM22jS7cik_ZJRduj6Vj-34">
          <mxGeometry relative="1" as="geometry" />
        </mxCell>
        <mxCell id="uM22jS7cik_ZJRduj6Vj-59" value="has" style="edgeLabel;html=1;align=center;verticalAlign=middle;resizable=0;points=[];" vertex="1" connectable="0" parent="uM22jS7cik_ZJRduj6Vj-57">
          <mxGeometry x="-0.2333" y="-1" relative="1" as="geometry">
            <mxPoint y="-11" as="offset" />
          </mxGeometry>
        </mxCell>
        <mxCell id="uM22jS7cik_ZJRduj6Vj-101" style="edgeStyle=orthogonalEdgeStyle;rounded=0;orthogonalLoop=1;jettySize=auto;html=1;exitX=0;exitY=0.5;exitDx=0;exitDy=0;entryX=1;entryY=0.5;entryDx=0;entryDy=0;endArrow=none;endFill=0;" edge="1" parent="1" source="uM22jS7cik_ZJRduj6Vj-6" target="uM22jS7cik_ZJRduj6Vj-66">
          <mxGeometry relative="1" as="geometry" />
        </mxCell>
        <mxCell id="uM22jS7cik_ZJRduj6Vj-6" value="Professor" style="rounded=1;whiteSpace=wrap;html=1;fillColor=#ffe6cc;strokeColor=#d79b00;" vertex="1" parent="1">
          <mxGeometry x="110" y="80" width="120" height="60" as="geometry" />
        </mxCell>
        <mxCell id="uM22jS7cik_ZJRduj6Vj-16" style="edgeStyle=orthogonalEdgeStyle;rounded=0;orthogonalLoop=1;jettySize=auto;html=1;exitX=0.5;exitY=1;exitDx=0;exitDy=0;entryX=0.5;entryY=0;entryDx=0;entryDy=0;endArrow=none;endFill=0;startArrow=none;" edge="1" parent="1" source="uM22jS7cik_ZJRduj6Vj-17" target="uM22jS7cik_ZJRduj6Vj-15">
          <mxGeometry relative="1" as="geometry" />
        </mxCell>
        <mxCell id="uM22jS7cik_ZJRduj6Vj-7" value="Course Collection" style="ellipse;whiteSpace=wrap;html=1;fillColor=#e1d5e7;strokeColor=#9673a6;" vertex="1" parent="1">
          <mxGeometry x="110" y="210" width="120" height="80" as="geometry" />
        </mxCell>
        <mxCell id="uM22jS7cik_ZJRduj6Vj-11" style="edgeStyle=orthogonalEdgeStyle;rounded=0;orthogonalLoop=1;jettySize=auto;html=1;exitX=0.5;exitY=1;exitDx=0;exitDy=0;entryX=0.5;entryY=0;entryDx=0;entryDy=0;endArrow=none;endFill=0;startArrow=none;" edge="1" parent="1" source="uM22jS7cik_ZJRduj6Vj-13" target="uM22jS7cik_ZJRduj6Vj-6">
          <mxGeometry relative="1" as="geometry" />
        </mxCell>
        <mxCell id="uM22jS7cik_ZJRduj6Vj-10" value="Professor Collection" style="ellipse;whiteSpace=wrap;html=1;fillColor=#e1d5e7;strokeColor=#9673a6;" vertex="1" parent="1">
          <mxGeometry x="110" y="-80" width="120" height="80" as="geometry" />
        </mxCell>
        <mxCell id="uM22jS7cik_ZJRduj6Vj-12" value="" style="edgeStyle=orthogonalEdgeStyle;rounded=0;orthogonalLoop=1;jettySize=auto;html=1;exitX=0.5;exitY=1;exitDx=0;exitDy=0;entryX=0.5;entryY=0;entryDx=0;entryDy=0;endArrow=none;endFill=0;" edge="1" parent="1" source="uM22jS7cik_ZJRduj6Vj-10" target="uM22jS7cik_ZJRduj6Vj-13">
          <mxGeometry relative="1" as="geometry">
            <mxPoint x="170" as="sourcePoint" />
            <mxPoint x="170" y="80" as="targetPoint" />
          </mxGeometry>
        </mxCell>
        <mxCell id="uM22jS7cik_ZJRduj6Vj-13" value="member" style="text;html=1;strokeColor=none;fillColor=none;align=center;verticalAlign=middle;whiteSpace=wrap;rounded=0;" vertex="1" parent="1">
          <mxGeometry x="140" y="30" width="60" height="30" as="geometry" />
        </mxCell>
        <mxCell id="uM22jS7cik_ZJRduj6Vj-14" value="" style="edgeStyle=orthogonalEdgeStyle;rounded=0;orthogonalLoop=1;jettySize=auto;html=1;exitX=0.5;exitY=1;exitDx=0;exitDy=0;entryX=0.5;entryY=0;entryDx=0;entryDy=0;endArrow=none;endFill=0;" edge="1" parent="1" source="uM22jS7cik_ZJRduj6Vj-6" target="uM22jS7cik_ZJRduj6Vj-9">
          <mxGeometry relative="1" as="geometry">
            <mxPoint x="170" y="140" as="sourcePoint" />
            <mxPoint x="170" y="210" as="targetPoint" />
          </mxGeometry>
        </mxCell>
        <mxCell id="uM22jS7cik_ZJRduj6Vj-9" value="has" style="text;html=1;strokeColor=none;fillColor=none;align=center;verticalAlign=middle;whiteSpace=wrap;rounded=0;" vertex="1" parent="1">
          <mxGeometry x="140" y="160" width="60" height="30" as="geometry" />
        </mxCell>
        <mxCell id="uM22jS7cik_ZJRduj6Vj-23" style="edgeStyle=orthogonalEdgeStyle;rounded=0;orthogonalLoop=1;jettySize=auto;html=1;exitX=1;exitY=0.5;exitDx=0;exitDy=0;entryX=0;entryY=0.5;entryDx=0;entryDy=0;endArrow=classic;endFill=1;" edge="1" parent="1" source="uM22jS7cik_ZJRduj6Vj-15" target="uM22jS7cik_ZJRduj6Vj-20">
          <mxGeometry relative="1" as="geometry" />
        </mxCell>
        <mxCell id="uM22jS7cik_ZJRduj6Vj-61" value="has" style="edgeLabel;html=1;align=center;verticalAlign=middle;resizable=0;points=[];" vertex="1" connectable="0" parent="uM22jS7cik_ZJRduj6Vj-23">
          <mxGeometry x="-0.1306" y="2" relative="1" as="geometry">
            <mxPoint y="-13" as="offset" />
          </mxGeometry>
        </mxCell>
        <mxCell id="uM22jS7cik_ZJRduj6Vj-107" style="edgeStyle=orthogonalEdgeStyle;rounded=0;orthogonalLoop=1;jettySize=auto;html=1;exitX=0;exitY=0.5;exitDx=0;exitDy=0;entryX=1;entryY=0.5;entryDx=0;entryDy=0;endArrow=none;endFill=0;" edge="1" parent="1" source="uM22jS7cik_ZJRduj6Vj-15" target="uM22jS7cik_ZJRduj6Vj-106">
          <mxGeometry relative="1" as="geometry" />
        </mxCell>
        <mxCell id="uM22jS7cik_ZJRduj6Vj-15" value="Course" style="rounded=1;whiteSpace=wrap;html=1;fillColor=#ffe6cc;strokeColor=#d79b00;" vertex="1" parent="1">
          <mxGeometry x="110" y="365" width="120" height="60" as="geometry" />
        </mxCell>
        <mxCell id="uM22jS7cik_ZJRduj6Vj-18" value="" style="edgeStyle=orthogonalEdgeStyle;rounded=0;orthogonalLoop=1;jettySize=auto;html=1;exitX=0.5;exitY=1;exitDx=0;exitDy=0;entryX=0.5;entryY=0;entryDx=0;entryDy=0;endArrow=none;endFill=0;" edge="1" parent="1" source="uM22jS7cik_ZJRduj6Vj-7" target="uM22jS7cik_ZJRduj6Vj-17">
          <mxGeometry relative="1" as="geometry">
            <mxPoint x="170" y="290" as="sourcePoint" />
            <mxPoint x="170" y="365" as="targetPoint" />
          </mxGeometry>
        </mxCell>
        <mxCell id="uM22jS7cik_ZJRduj6Vj-17" value="member" style="text;html=1;strokeColor=none;fillColor=none;align=center;verticalAlign=middle;whiteSpace=wrap;rounded=0;" vertex="1" parent="1">
          <mxGeometry x="140" y="310" width="60" height="30" as="geometry" />
        </mxCell>
        <mxCell id="uM22jS7cik_ZJRduj6Vj-28" style="edgeStyle=orthogonalEdgeStyle;rounded=0;orthogonalLoop=1;jettySize=auto;html=1;exitX=0.5;exitY=1;exitDx=0;exitDy=0;endArrow=none;endFill=0;" edge="1" parent="1" source="uM22jS7cik_ZJRduj6Vj-20" target="uM22jS7cik_ZJRduj6Vj-26">
          <mxGeometry relative="1" as="geometry" />
        </mxCell>
        <mxCell id="uM22jS7cik_ZJRduj6Vj-20" value="Section Collection" style="ellipse;whiteSpace=wrap;html=1;fillColor=#e1d5e7;strokeColor=#9673a6;" vertex="1" parent="1">
          <mxGeometry x="400" y="355" width="120" height="80" as="geometry" />
        </mxCell>
        <mxCell id="uM22jS7cik_ZJRduj6Vj-21" value="" style="rounded=1;whiteSpace=wrap;html=1;fillColor=#ffe6cc;strokeColor=#d79b00;" vertex="1" parent="1">
          <mxGeometry x="360" y="-220" width="120" height="60" as="geometry" />
        </mxCell>
        <mxCell id="uM22jS7cik_ZJRduj6Vj-25" style="edgeStyle=orthogonalEdgeStyle;rounded=0;orthogonalLoop=1;jettySize=auto;html=1;exitX=0.5;exitY=1;exitDx=0;exitDy=0;entryX=0.5;entryY=0;entryDx=0;entryDy=0;endArrow=none;endFill=0;startArrow=none;" edge="1" parent="1" source="uM22jS7cik_ZJRduj6Vj-26">
          <mxGeometry relative="1" as="geometry">
            <mxPoint x="460" y="525" as="targetPoint" />
          </mxGeometry>
        </mxCell>
        <mxCell id="uM22jS7cik_ZJRduj6Vj-26" value="member" style="text;html=1;strokeColor=none;fillColor=none;align=center;verticalAlign=middle;whiteSpace=wrap;rounded=0;" vertex="1" parent="1">
          <mxGeometry x="430" y="450" width="60" height="30" as="geometry" />
        </mxCell>
        <mxCell id="uM22jS7cik_ZJRduj6Vj-96" style="edgeStyle=orthogonalEdgeStyle;rounded=0;orthogonalLoop=1;jettySize=auto;html=1;exitX=1;exitY=0.5;exitDx=0;exitDy=0;entryX=0;entryY=0.5;entryDx=0;entryDy=0;" edge="1" parent="1" source="uM22jS7cik_ZJRduj6Vj-27" target="uM22jS7cik_ZJRduj6Vj-43">
          <mxGeometry relative="1" as="geometry" />
        </mxCell>
        <mxCell id="uM22jS7cik_ZJRduj6Vj-97" value="has" style="edgeLabel;html=1;align=center;verticalAlign=middle;resizable=0;points=[];" vertex="1" connectable="0" parent="uM22jS7cik_ZJRduj6Vj-96">
          <mxGeometry x="-0.1444" y="1" relative="1" as="geometry">
            <mxPoint as="offset" />
          </mxGeometry>
        </mxCell>
        <mxCell id="uM22jS7cik_ZJRduj6Vj-126" style="edgeStyle=orthogonalEdgeStyle;rounded=0;orthogonalLoop=1;jettySize=auto;html=1;exitX=0.75;exitY=1;exitDx=0;exitDy=0;entryX=0.5;entryY=0;entryDx=0;entryDy=0;" edge="1" parent="1" source="uM22jS7cik_ZJRduj6Vj-27" target="uM22jS7cik_ZJRduj6Vj-124">
          <mxGeometry relative="1" as="geometry" />
        </mxCell>
        <mxCell id="uM22jS7cik_ZJRduj6Vj-128" value="has" style="edgeLabel;html=1;align=center;verticalAlign=middle;resizable=0;points=[];" vertex="1" connectable="0" parent="uM22jS7cik_ZJRduj6Vj-126">
          <mxGeometry x="-0.3672" y="-3" relative="1" as="geometry">
            <mxPoint x="18" y="-6" as="offset" />
          </mxGeometry>
        </mxCell>
        <mxCell id="uM22jS7cik_ZJRduj6Vj-127" style="edgeStyle=orthogonalEdgeStyle;rounded=0;orthogonalLoop=1;jettySize=auto;html=1;exitX=0.25;exitY=1;exitDx=0;exitDy=0;entryX=0.5;entryY=0;entryDx=0;entryDy=0;" edge="1" parent="1" source="uM22jS7cik_ZJRduj6Vj-27">
          <mxGeometry relative="1" as="geometry">
            <mxPoint x="385" y="635" as="targetPoint" />
          </mxGeometry>
        </mxCell>
        <mxCell id="uM22jS7cik_ZJRduj6Vj-129" value="has" style="edgeLabel;html=1;align=center;verticalAlign=middle;resizable=0;points=[];" vertex="1" connectable="0" parent="uM22jS7cik_ZJRduj6Vj-127">
          <mxGeometry x="-0.2817" y="-1" relative="1" as="geometry">
            <mxPoint x="-15" y="-7" as="offset" />
          </mxGeometry>
        </mxCell>
        <mxCell id="uM22jS7cik_ZJRduj6Vj-27" value="Section" style="rounded=1;whiteSpace=wrap;html=1;fillColor=#ffe6cc;strokeColor=#d79b00;" vertex="1" parent="1">
          <mxGeometry x="400" y="500" width="120" height="60" as="geometry" />
        </mxCell>
        <mxCell id="uM22jS7cik_ZJRduj6Vj-68" style="edgeStyle=orthogonalEdgeStyle;rounded=0;orthogonalLoop=1;jettySize=auto;html=1;exitX=0.5;exitY=1;exitDx=0;exitDy=0;entryX=0.5;entryY=0;entryDx=0;entryDy=0;endArrow=none;endFill=0;" edge="1" parent="1" source="uM22jS7cik_ZJRduj6Vj-34" target="uM22jS7cik_ZJRduj6Vj-63">
          <mxGeometry relative="1" as="geometry" />
        </mxCell>
        <mxCell id="uM22jS7cik_ZJRduj6Vj-91" style="edgeStyle=orthogonalEdgeStyle;rounded=0;orthogonalLoop=1;jettySize=auto;html=1;exitX=1;exitY=0.75;exitDx=0;exitDy=0;entryX=0.5;entryY=0;entryDx=0;entryDy=0;" edge="1" parent="1" source="uM22jS7cik_ZJRduj6Vj-34" target="uM22jS7cik_ZJRduj6Vj-44">
          <mxGeometry relative="1" as="geometry" />
        </mxCell>
        <mxCell id="uM22jS7cik_ZJRduj6Vj-95" value="has" style="edgeLabel;html=1;align=center;verticalAlign=middle;resizable=0;points=[];" vertex="1" connectable="0" parent="uM22jS7cik_ZJRduj6Vj-91">
          <mxGeometry x="0.5063" y="1" relative="1" as="geometry">
            <mxPoint as="offset" />
          </mxGeometry>
        </mxCell>
        <mxCell id="uM22jS7cik_ZJRduj6Vj-34" value="User" style="rounded=1;whiteSpace=wrap;html=1;fillColor=#ffe6cc;strokeColor=#d79b00;" vertex="1" parent="1">
          <mxGeometry x="440" y="80" width="120" height="60" as="geometry" />
        </mxCell>
        <mxCell id="uM22jS7cik_ZJRduj6Vj-35" value="" style="rounded=1;whiteSpace=wrap;html=1;fillColor=#ffe6cc;strokeColor=#d79b00;" vertex="1" parent="1">
          <mxGeometry x="610" y="-220" width="120" height="60" as="geometry" />
        </mxCell>
        <mxCell id="uM22jS7cik_ZJRduj6Vj-36" value="" style="rounded=1;whiteSpace=wrap;html=1;fillColor=#ffe6cc;strokeColor=#d79b00;" vertex="1" parent="1">
          <mxGeometry x="550" y="-220" width="120" height="60" as="geometry" />
        </mxCell>
        <mxCell id="uM22jS7cik_ZJRduj6Vj-37" value="" style="rounded=1;whiteSpace=wrap;html=1;fillColor=#ffe6cc;strokeColor=#d79b00;" vertex="1" parent="1">
          <mxGeometry x="430" y="-220" width="120" height="60" as="geometry" />
        </mxCell>
        <mxCell id="uM22jS7cik_ZJRduj6Vj-113" style="edgeStyle=orthogonalEdgeStyle;rounded=0;orthogonalLoop=1;jettySize=auto;html=1;exitX=1;exitY=0.5;exitDx=0;exitDy=0;entryX=0;entryY=0.5;entryDx=0;entryDy=0;endArrow=none;endFill=0;" edge="1" parent="1" source="uM22jS7cik_ZJRduj6Vj-38" target="uM22jS7cik_ZJRduj6Vj-65">
          <mxGeometry relative="1" as="geometry" />
        </mxCell>
        <mxCell id="uM22jS7cik_ZJRduj6Vj-38" value="Lesson" style="rounded=1;whiteSpace=wrap;html=1;fillColor=#ffe6cc;strokeColor=#d79b00;" vertex="1" parent="1">
          <mxGeometry x="660" y="640" width="120" height="60" as="geometry" />
        </mxCell>
        <mxCell id="uM22jS7cik_ZJRduj6Vj-39" value="Group&lt;br&gt;(students, professors)" style="rounded=1;whiteSpace=wrap;html=1;fillColor=#ffe6cc;strokeColor=#d79b00;" vertex="1" parent="1">
          <mxGeometry x="655" y="365" width="120" height="60" as="geometry" />
        </mxCell>
        <mxCell id="uM22jS7cik_ZJRduj6Vj-40" value="" style="ellipse;whiteSpace=wrap;html=1;fillColor=#e1d5e7;strokeColor=#9673a6;" vertex="1" parent="1">
          <mxGeometry x="820" y="-160" width="120" height="80" as="geometry" />
        </mxCell>
        <mxCell id="uM22jS7cik_ZJRduj6Vj-41" value="" style="ellipse;whiteSpace=wrap;html=1;fillColor=#e1d5e7;strokeColor=#9673a6;" vertex="1" parent="1">
          <mxGeometry x="860" y="-180" width="120" height="80" as="geometry" />
        </mxCell>
        <mxCell id="uM22jS7cik_ZJRduj6Vj-54" style="edgeStyle=orthogonalEdgeStyle;rounded=0;orthogonalLoop=1;jettySize=auto;html=1;exitX=0.5;exitY=1;exitDx=0;exitDy=0;endArrow=none;endFill=0;startArrow=none;" edge="1" parent="1" source="uM22jS7cik_ZJRduj6Vj-55" target="uM22jS7cik_ZJRduj6Vj-34">
          <mxGeometry relative="1" as="geometry" />
        </mxCell>
        <mxCell id="uM22jS7cik_ZJRduj6Vj-42" value="User Collection" style="ellipse;whiteSpace=wrap;html=1;fillColor=#e1d5e7;strokeColor=#9673a6;" vertex="1" parent="1">
          <mxGeometry x="440" y="-80" width="120" height="80" as="geometry" />
        </mxCell>
        <mxCell id="uM22jS7cik_ZJRduj6Vj-98" style="edgeStyle=orthogonalEdgeStyle;rounded=0;orthogonalLoop=1;jettySize=auto;html=1;exitX=0.5;exitY=1;exitDx=0;exitDy=0;entryX=0.5;entryY=0;entryDx=0;entryDy=0;endArrow=none;endFill=0;startArrow=none;" edge="1" parent="1" source="uM22jS7cik_ZJRduj6Vj-99" target="uM22jS7cik_ZJRduj6Vj-38">
          <mxGeometry relative="1" as="geometry" />
        </mxCell>
        <mxCell id="uM22jS7cik_ZJRduj6Vj-43" value="Lesson Collection" style="ellipse;whiteSpace=wrap;html=1;fillColor=#e1d5e7;strokeColor=#9673a6;" vertex="1" parent="1">
          <mxGeometry x="660" y="490" width="120" height="80" as="geometry" />
        </mxCell>
        <mxCell id="uM22jS7cik_ZJRduj6Vj-92" style="edgeStyle=orthogonalEdgeStyle;rounded=0;orthogonalLoop=1;jettySize=auto;html=1;exitX=0.5;exitY=1;exitDx=0;exitDy=0;entryX=0.5;entryY=0;entryDx=0;entryDy=0;endArrow=none;endFill=0;startArrow=none;" edge="1" parent="1" source="uM22jS7cik_ZJRduj6Vj-93" target="uM22jS7cik_ZJRduj6Vj-39">
          <mxGeometry relative="1" as="geometry" />
        </mxCell>
        <mxCell id="uM22jS7cik_ZJRduj6Vj-44" value="Group collection" style="ellipse;whiteSpace=wrap;html=1;fillColor=#e1d5e7;strokeColor=#9673a6;" vertex="1" parent="1">
          <mxGeometry x="655" y="220" width="120" height="80" as="geometry" />
        </mxCell>
        <mxCell id="uM22jS7cik_ZJRduj6Vj-48" style="edgeStyle=orthogonalEdgeStyle;rounded=0;orthogonalLoop=1;jettySize=auto;html=1;exitX=0.5;exitY=1;exitDx=0;exitDy=0;entryX=0.5;entryY=0;entryDx=0;entryDy=0;endArrow=none;endFill=0;startArrow=none;" edge="1" parent="1" source="uM22jS7cik_ZJRduj6Vj-49" target="uM22jS7cik_ZJRduj6Vj-46">
          <mxGeometry relative="1" as="geometry" />
        </mxCell>
        <mxCell id="uM22jS7cik_ZJRduj6Vj-45" value="Student Collection" style="ellipse;whiteSpace=wrap;html=1;fillColor=#e1d5e7;strokeColor=#9673a6;" vertex="1" parent="1">
          <mxGeometry x="770" y="-80" width="120" height="80" as="geometry" />
        </mxCell>
        <mxCell id="uM22jS7cik_ZJRduj6Vj-58" style="edgeStyle=orthogonalEdgeStyle;rounded=0;orthogonalLoop=1;jettySize=auto;html=1;exitX=0;exitY=0.5;exitDx=0;exitDy=0;entryX=1;entryY=0.5;entryDx=0;entryDy=0;" edge="1" parent="1" source="uM22jS7cik_ZJRduj6Vj-46" target="uM22jS7cik_ZJRduj6Vj-34">
          <mxGeometry relative="1" as="geometry" />
        </mxCell>
        <mxCell id="uM22jS7cik_ZJRduj6Vj-60" value="has" style="edgeLabel;html=1;align=center;verticalAlign=middle;resizable=0;points=[];" vertex="1" connectable="0" parent="uM22jS7cik_ZJRduj6Vj-58">
          <mxGeometry x="-0.1286" y="-3" relative="1" as="geometry">
            <mxPoint y="-7" as="offset" />
          </mxGeometry>
        </mxCell>
        <mxCell id="uM22jS7cik_ZJRduj6Vj-46" value="Student" style="rounded=1;whiteSpace=wrap;html=1;fillColor=#ffe6cc;strokeColor=#d79b00;" vertex="1" parent="1">
          <mxGeometry x="770" y="80" width="120" height="60" as="geometry" />
        </mxCell>
        <mxCell id="uM22jS7cik_ZJRduj6Vj-50" value="" style="edgeStyle=orthogonalEdgeStyle;rounded=0;orthogonalLoop=1;jettySize=auto;html=1;exitX=0.5;exitY=1;exitDx=0;exitDy=0;entryX=0.5;entryY=0;entryDx=0;entryDy=0;endArrow=none;endFill=0;" edge="1" parent="1" source="uM22jS7cik_ZJRduj6Vj-45" target="uM22jS7cik_ZJRduj6Vj-49">
          <mxGeometry relative="1" as="geometry">
            <mxPoint x="830" as="sourcePoint" />
            <mxPoint x="830" y="80" as="targetPoint" />
          </mxGeometry>
        </mxCell>
        <mxCell id="uM22jS7cik_ZJRduj6Vj-49" value="member" style="text;html=1;strokeColor=none;fillColor=none;align=center;verticalAlign=middle;whiteSpace=wrap;rounded=0;" vertex="1" parent="1">
          <mxGeometry x="800" y="30" width="60" height="30" as="geometry" />
        </mxCell>
        <mxCell id="uM22jS7cik_ZJRduj6Vj-56" value="" style="edgeStyle=orthogonalEdgeStyle;rounded=0;orthogonalLoop=1;jettySize=auto;html=1;exitX=0.5;exitY=1;exitDx=0;exitDy=0;endArrow=none;endFill=0;" edge="1" parent="1" source="uM22jS7cik_ZJRduj6Vj-42" target="uM22jS7cik_ZJRduj6Vj-55">
          <mxGeometry relative="1" as="geometry">
            <mxPoint x="500" as="sourcePoint" />
            <mxPoint x="500" y="80" as="targetPoint" />
          </mxGeometry>
        </mxCell>
        <mxCell id="uM22jS7cik_ZJRduj6Vj-55" value="member" style="text;html=1;strokeColor=none;fillColor=none;align=center;verticalAlign=middle;whiteSpace=wrap;rounded=0;" vertex="1" parent="1">
          <mxGeometry x="470" y="30" width="60" height="30" as="geometry" />
        </mxCell>
        <mxCell id="uM22jS7cik_ZJRduj6Vj-82" style="rounded=0;orthogonalLoop=1;jettySize=auto;html=1;exitX=0;exitY=0.5;exitDx=0;exitDy=0;entryX=1;entryY=0.5;entryDx=0;entryDy=0;endArrow=none;endFill=0;" edge="1" parent="1" source="uM22jS7cik_ZJRduj6Vj-63" target="uM22jS7cik_ZJRduj6Vj-71">
          <mxGeometry relative="1" as="geometry" />
        </mxCell>
        <mxCell id="uM22jS7cik_ZJRduj6Vj-83" style="rounded=0;orthogonalLoop=1;jettySize=auto;html=1;exitX=1;exitY=0.5;exitDx=0;exitDy=0;entryX=0;entryY=0.5;entryDx=0;entryDy=0;endArrow=none;endFill=0;" edge="1" parent="1" source="uM22jS7cik_ZJRduj6Vj-63" target="uM22jS7cik_ZJRduj6Vj-77">
          <mxGeometry relative="1" as="geometry" />
        </mxCell>
        <mxCell id="uM22jS7cik_ZJRduj6Vj-84" style="rounded=0;orthogonalLoop=1;jettySize=auto;html=1;exitX=0;exitY=0;exitDx=0;exitDy=0;entryX=0.5;entryY=1;entryDx=0;entryDy=0;endArrow=none;endFill=0;" edge="1" parent="1" source="uM22jS7cik_ZJRduj6Vj-63" target="uM22jS7cik_ZJRduj6Vj-67">
          <mxGeometry relative="1" as="geometry" />
        </mxCell>
        <mxCell id="uM22jS7cik_ZJRduj6Vj-85" style="rounded=0;orthogonalLoop=1;jettySize=auto;html=1;exitX=1;exitY=0;exitDx=0;exitDy=0;entryX=0.5;entryY=1;entryDx=0;entryDy=0;endArrow=none;endFill=0;" edge="1" parent="1" source="uM22jS7cik_ZJRduj6Vj-63" target="uM22jS7cik_ZJRduj6Vj-78">
          <mxGeometry relative="1" as="geometry" />
        </mxCell>
        <mxCell id="uM22jS7cik_ZJRduj6Vj-63" value="Attributes" style="ellipse;whiteSpace=wrap;html=1;fillColor=#fff2cc;strokeColor=#d6b656;" vertex="1" parent="1">
          <mxGeometry x="445" y="170" width="110" height="30" as="geometry" />
        </mxCell>
        <mxCell id="uM22jS7cik_ZJRduj6Vj-64" value="Attributes" style="ellipse;whiteSpace=wrap;html=1;fillColor=#fff2cc;strokeColor=#d6b656;" vertex="1" parent="1">
          <mxGeometry x="660" y="-90" width="110" height="30" as="geometry" />
        </mxCell>
        <mxCell id="uM22jS7cik_ZJRduj6Vj-119" style="rounded=0;orthogonalLoop=1;jettySize=auto;html=1;exitX=0;exitY=0;exitDx=0;exitDy=0;entryX=1;entryY=0.5;entryDx=0;entryDy=0;endArrow=none;endFill=0;" edge="1" parent="1" source="uM22jS7cik_ZJRduj6Vj-65" target="uM22jS7cik_ZJRduj6Vj-114">
          <mxGeometry relative="1" as="geometry" />
        </mxCell>
        <mxCell id="uM22jS7cik_ZJRduj6Vj-123" style="rounded=0;orthogonalLoop=1;jettySize=auto;html=1;exitX=1;exitY=0;exitDx=0;exitDy=0;entryX=0;entryY=1;entryDx=0;entryDy=0;endArrow=none;endFill=0;" edge="1" parent="1" source="uM22jS7cik_ZJRduj6Vj-65" target="uM22jS7cik_ZJRduj6Vj-117">
          <mxGeometry relative="1" as="geometry" />
        </mxCell>
        <mxCell id="uM22jS7cik_ZJRduj6Vj-65" value="Attributes" style="ellipse;whiteSpace=wrap;html=1;fillColor=#fff2cc;strokeColor=#d6b656;" vertex="1" parent="1">
          <mxGeometry x="870" y="655" width="110" height="30" as="geometry" />
        </mxCell>
        <mxCell id="uM22jS7cik_ZJRduj6Vj-66" value="Attributes" style="ellipse;whiteSpace=wrap;html=1;fillColor=#fff2cc;strokeColor=#d6b656;" vertex="1" parent="1">
          <mxGeometry x="-80" y="95" width="110" height="30" as="geometry" />
        </mxCell>
        <mxCell id="uM22jS7cik_ZJRduj6Vj-67" value="Name" style="ellipse;whiteSpace=wrap;html=1;fillColor=#fff2cc;strokeColor=#d6b656;" vertex="1" parent="1">
          <mxGeometry x="385" y="140" width="70" height="30" as="geometry" />
        </mxCell>
        <mxCell id="uM22jS7cik_ZJRduj6Vj-71" value="Date joined" style="ellipse;whiteSpace=wrap;html=1;fillColor=#fff2cc;strokeColor=#d6b656;" vertex="1" parent="1">
          <mxGeometry x="350" y="180" width="70" height="30" as="geometry" />
        </mxCell>
        <mxCell id="uM22jS7cik_ZJRduj6Vj-86" style="rounded=0;orthogonalLoop=1;jettySize=auto;html=1;exitX=0.5;exitY=0;exitDx=0;exitDy=0;entryX=0;entryY=1;entryDx=0;entryDy=0;endArrow=none;endFill=0;" edge="1" parent="1" source="uM22jS7cik_ZJRduj6Vj-72" target="uM22jS7cik_ZJRduj6Vj-63">
          <mxGeometry relative="1" as="geometry" />
        </mxCell>
        <mxCell id="uM22jS7cik_ZJRduj6Vj-72" value="Last login" style="ellipse;whiteSpace=wrap;html=1;fillColor=#fff2cc;strokeColor=#d6b656;" vertex="1" parent="1">
          <mxGeometry x="390" y="220" width="70" height="30" as="geometry" />
        </mxCell>
        <mxCell id="uM22jS7cik_ZJRduj6Vj-87" style="rounded=0;orthogonalLoop=1;jettySize=auto;html=1;exitX=0.5;exitY=0;exitDx=0;exitDy=0;entryX=0.5;entryY=1;entryDx=0;entryDy=0;endArrow=none;endFill=0;" edge="1" parent="1" source="uM22jS7cik_ZJRduj6Vj-75" target="uM22jS7cik_ZJRduj6Vj-63">
          <mxGeometry relative="1" as="geometry" />
        </mxCell>
        <mxCell id="uM22jS7cik_ZJRduj6Vj-75" value="Email" style="ellipse;whiteSpace=wrap;html=1;fillColor=#fff2cc;strokeColor=#d6b656;" vertex="1" parent="1">
          <mxGeometry x="470" y="220" width="70" height="30" as="geometry" />
        </mxCell>
        <mxCell id="uM22jS7cik_ZJRduj6Vj-88" style="rounded=0;orthogonalLoop=1;jettySize=auto;html=1;exitX=0;exitY=0;exitDx=0;exitDy=0;entryX=1;entryY=1;entryDx=0;entryDy=0;endArrow=none;endFill=0;" edge="1" parent="1" source="uM22jS7cik_ZJRduj6Vj-76" target="uM22jS7cik_ZJRduj6Vj-63">
          <mxGeometry relative="1" as="geometry" />
        </mxCell>
        <mxCell id="uM22jS7cik_ZJRduj6Vj-76" value="Is active" style="ellipse;whiteSpace=wrap;html=1;fillColor=#fff2cc;strokeColor=#d6b656;" vertex="1" parent="1">
          <mxGeometry x="550" y="220" width="70" height="30" as="geometry" />
        </mxCell>
        <mxCell id="uM22jS7cik_ZJRduj6Vj-77" value="Is superuser" style="ellipse;whiteSpace=wrap;html=1;fillColor=#fff2cc;strokeColor=#d6b656;" vertex="1" parent="1">
          <mxGeometry x="575" y="180" width="70" height="30" as="geometry" />
        </mxCell>
        <mxCell id="uM22jS7cik_ZJRduj6Vj-78" value="Is admin" style="ellipse;whiteSpace=wrap;html=1;fillColor=#fff2cc;strokeColor=#d6b656;" vertex="1" parent="1">
          <mxGeometry x="550" y="140" width="70" height="30" as="geometry" />
        </mxCell>
        <mxCell id="uM22jS7cik_ZJRduj6Vj-94" value="" style="edgeStyle=orthogonalEdgeStyle;rounded=0;orthogonalLoop=1;jettySize=auto;html=1;exitX=0.5;exitY=1;exitDx=0;exitDy=0;entryX=0.5;entryY=0;entryDx=0;entryDy=0;endArrow=none;endFill=0;" edge="1" parent="1" source="uM22jS7cik_ZJRduj6Vj-44" target="uM22jS7cik_ZJRduj6Vj-93">
          <mxGeometry relative="1" as="geometry">
            <mxPoint x="715" y="300" as="sourcePoint" />
            <mxPoint x="715" y="365" as="targetPoint" />
          </mxGeometry>
        </mxCell>
        <mxCell id="uM22jS7cik_ZJRduj6Vj-93" value="member" style="text;html=1;strokeColor=none;fillColor=none;align=center;verticalAlign=middle;whiteSpace=wrap;rounded=0;" vertex="1" parent="1">
          <mxGeometry x="685" y="320" width="60" height="30" as="geometry" />
        </mxCell>
        <mxCell id="uM22jS7cik_ZJRduj6Vj-100" value="" style="edgeStyle=orthogonalEdgeStyle;rounded=0;orthogonalLoop=1;jettySize=auto;html=1;exitX=0.5;exitY=1;exitDx=0;exitDy=0;entryX=0.5;entryY=0;entryDx=0;entryDy=0;endArrow=none;endFill=0;" edge="1" parent="1" source="uM22jS7cik_ZJRduj6Vj-43" target="uM22jS7cik_ZJRduj6Vj-99">
          <mxGeometry relative="1" as="geometry">
            <mxPoint x="720" y="570" as="sourcePoint" />
            <mxPoint x="720" y="650" as="targetPoint" />
          </mxGeometry>
        </mxCell>
        <mxCell id="uM22jS7cik_ZJRduj6Vj-99" value="member" style="text;html=1;strokeColor=none;fillColor=none;align=center;verticalAlign=middle;whiteSpace=wrap;rounded=0;" vertex="1" parent="1">
          <mxGeometry x="690" y="590" width="60" height="30" as="geometry" />
        </mxCell>
        <mxCell id="uM22jS7cik_ZJRduj6Vj-105" style="rounded=0;orthogonalLoop=1;jettySize=auto;html=1;exitX=0.5;exitY=0;exitDx=0;exitDy=0;entryX=0;entryY=1;entryDx=0;entryDy=0;endArrow=none;endFill=0;" edge="1" parent="1" source="uM22jS7cik_ZJRduj6Vj-102" target="uM22jS7cik_ZJRduj6Vj-66">
          <mxGeometry relative="1" as="geometry" />
        </mxCell>
        <mxCell id="uM22jS7cik_ZJRduj6Vj-102" value="Title" style="ellipse;whiteSpace=wrap;html=1;fillColor=#fff2cc;strokeColor=#d6b656;" vertex="1" parent="1">
          <mxGeometry x="-110" y="140" width="70" height="30" as="geometry" />
        </mxCell>
        <mxCell id="uM22jS7cik_ZJRduj6Vj-104" style="rounded=0;orthogonalLoop=1;jettySize=auto;html=1;exitX=0.5;exitY=0;exitDx=0;exitDy=0;entryX=0.765;entryY=0.903;entryDx=0;entryDy=0;entryPerimeter=0;endArrow=none;endFill=0;" edge="1" parent="1" source="uM22jS7cik_ZJRduj6Vj-103" target="uM22jS7cik_ZJRduj6Vj-66">
          <mxGeometry relative="1" as="geometry" />
        </mxCell>
        <mxCell id="uM22jS7cik_ZJRduj6Vj-103" value="Suffix" style="ellipse;whiteSpace=wrap;html=1;fillColor=#fff2cc;strokeColor=#d6b656;" vertex="1" parent="1">
          <mxGeometry x="-20" y="140" width="70" height="30" as="geometry" />
        </mxCell>
        <mxCell id="uM22jS7cik_ZJRduj6Vj-106" value="Attributes" style="ellipse;whiteSpace=wrap;html=1;fillColor=#fff2cc;strokeColor=#d6b656;" vertex="1" parent="1">
          <mxGeometry x="-80" y="380" width="110" height="30" as="geometry" />
        </mxCell>
        <mxCell id="uM22jS7cik_ZJRduj6Vj-110" style="rounded=0;orthogonalLoop=1;jettySize=auto;html=1;exitX=0.5;exitY=0;exitDx=0;exitDy=0;entryX=0;entryY=1;entryDx=0;entryDy=0;endArrow=none;endFill=0;" edge="1" parent="1" source="uM22jS7cik_ZJRduj6Vj-108" target="uM22jS7cik_ZJRduj6Vj-106">
          <mxGeometry relative="1" as="geometry" />
        </mxCell>
        <mxCell id="uM22jS7cik_ZJRduj6Vj-108" value="Code" style="ellipse;whiteSpace=wrap;html=1;fillColor=#fff2cc;strokeColor=#d6b656;" vertex="1" parent="1">
          <mxGeometry x="-110" y="425" width="70" height="30" as="geometry" />
        </mxCell>
        <mxCell id="uM22jS7cik_ZJRduj6Vj-112" style="rounded=0;orthogonalLoop=1;jettySize=auto;html=1;exitX=0.5;exitY=0;exitDx=0;exitDy=0;entryX=0.765;entryY=1.055;entryDx=0;entryDy=0;entryPerimeter=0;endArrow=none;endFill=0;" edge="1" parent="1" source="uM22jS7cik_ZJRduj6Vj-109" target="uM22jS7cik_ZJRduj6Vj-106">
          <mxGeometry relative="1" as="geometry" />
        </mxCell>
        <mxCell id="uM22jS7cik_ZJRduj6Vj-109" value="Description" style="ellipse;whiteSpace=wrap;html=1;fillColor=#fff2cc;strokeColor=#d6b656;" vertex="1" parent="1">
          <mxGeometry x="-20" y="425" width="70" height="30" as="geometry" />
        </mxCell>
        <mxCell id="uM22jS7cik_ZJRduj6Vj-114" value="Title" style="ellipse;whiteSpace=wrap;html=1;fillColor=#fff2cc;strokeColor=#d6b656;" vertex="1" parent="1">
          <mxGeometry x="800" y="620" width="70" height="30" as="geometry" />
        </mxCell>
        <mxCell id="uM22jS7cik_ZJRduj6Vj-121" style="edgeStyle=orthogonalEdgeStyle;rounded=0;orthogonalLoop=1;jettySize=auto;html=1;exitX=0.5;exitY=1;exitDx=0;exitDy=0;entryX=0.408;entryY=0.051;entryDx=0;entryDy=0;entryPerimeter=0;endArrow=none;endFill=0;" edge="1" parent="1" source="uM22jS7cik_ZJRduj6Vj-115" target="uM22jS7cik_ZJRduj6Vj-65">
          <mxGeometry relative="1" as="geometry" />
        </mxCell>
        <mxCell id="uM22jS7cik_ZJRduj6Vj-115" value="Description" style="ellipse;whiteSpace=wrap;html=1;fillColor=#fff2cc;strokeColor=#d6b656;" vertex="1" parent="1">
          <mxGeometry x="880" y="600" width="70" height="30" as="geometry" />
        </mxCell>
        <mxCell id="uM22jS7cik_ZJRduj6Vj-117" value="Start date" style="ellipse;whiteSpace=wrap;html=1;fillColor=#fff2cc;strokeColor=#d6b656;" vertex="1" parent="1">
          <mxGeometry x="970" y="610" width="70" height="30" as="geometry" />
        </mxCell>
        <mxCell id="uM22jS7cik_ZJRduj6Vj-120" style="rounded=0;orthogonalLoop=1;jettySize=auto;html=1;exitX=0;exitY=0.5;exitDx=0;exitDy=0;entryX=1;entryY=1;entryDx=0;entryDy=0;endArrow=none;endFill=0;" edge="1" parent="1" source="uM22jS7cik_ZJRduj6Vj-118" target="uM22jS7cik_ZJRduj6Vj-65">
          <mxGeometry relative="1" as="geometry" />
        </mxCell>
        <mxCell id="uM22jS7cik_ZJRduj6Vj-118" value="End date" style="ellipse;whiteSpace=wrap;html=1;fillColor=#fff2cc;strokeColor=#d6b656;" vertex="1" parent="1">
          <mxGeometry x="980" y="685" width="70" height="30" as="geometry" />
        </mxCell>
        <mxCell id="uM22jS7cik_ZJRduj6Vj-124" value="Student Collection" style="ellipse;whiteSpace=wrap;html=1;fillColor=#e1d5e7;strokeColor=#9673a6;" vertex="1" parent="1">
          <mxGeometry x="470" y="635" width="120" height="80" as="geometry" />
        </mxCell>
        <mxCell id="uM22jS7cik_ZJRduj6Vj-130" value="Meta Attendance Record" style="rounded=1;whiteSpace=wrap;html=1;fillColor=#ffe6cc;strokeColor=#d79b00;" vertex="1" parent="1">
          <mxGeometry x="325" y="635" width="120" height="60" as="geometry" />
        </mxCell>
      </root>
    </mxGraphModel>
  </diagram>
</mxfile>
